<svg width="134" height="33" viewBox="0 0 134 33" fill="none" xmlns="http://www.w3.org/2000/svg">
<g clip-path="url(#clip0_6_1847)">
<path d="M11.738 1.12012H0V6.47094H3.46672V22.6856C3.46672 22.6856 3.46672 32.81 14.0727 32.81C14.0727 32.81 18.5621 32.8878 21.2248 29.1584C21.2248 29.1584 23.4695 32.81 27.7274 32.81C27.7274 32.81 31.7472 33.2056 34.4807 30.6956C34.4807 30.6956 40.1085 26.8949 40.0249 15.136C40.0249 15.136 39.8641 6.30231 37.7866 1.12012H28.1326V6.47094H31.0268C31.0268 6.47094 32.5512 10.8424 32.5512 16.4332C32.5512 16.4332 32.7184 19.7864 31.0268 23.3147C31.0268 23.3147 29.9849 25.8247 27.7274 25.8247C27.7274 25.8247 25.7142 25.7534 25.7914 23.3147V1.12012H14.0727V6.47094H17.533V22.9255C17.533 22.9255 17.533 25.8312 14.6387 25.8312C14.6387 25.8312 11.738 25.8312 11.738 22.9255V1.12012Z" fill="white"></path>
<path d="M63.4599 15.7097C63.6014 15.5995 63.7815 15.3271 63.7815 15.3271C65.1386 13.3359 66.1741 9.63248 66.1741 9.63248C66.4957 8.60772 66.5343 7.18732 66.5343 7.18732C66.5343 6.27281 66.1741 5.37777 66.1741 5.37777C65.7432 4.4892 65.1 4.50866 65.1 4.50866C64.296 4.50866 63.685 5.60477 63.685 5.60477C63.119 6.5517 63.119 8.22505 63.119 8.22505V15.0676C63.119 16.021 63.4663 15.7162 63.4663 15.7162M74.1559 22.9285C73.8472 23.7716 73.4098 24.6797 73.4098 24.6797C73.2748 24.9002 73.2362 25.1791 73.2362 25.1791C73.2748 25.4515 73.4163 25.6979 73.4163 25.6979C73.7764 26.3011 74.3038 26.6124 74.3038 26.6124C74.8505 27.06 75.751 27.06 75.751 27.06C76.8637 27.06 77.3847 26.1909 77.3847 26.1909C77.9185 25.445 77.9185 24.6083 77.9185 24.6083C77.9185 24.057 77.5262 23.3111 77.5262 23.3111C77.2174 22.669 76.5935 21.4886 76.5935 21.4886C76.2269 20.8854 75.8668 20.1136 75.8668 20.1136C75.6931 19.6726 75.5387 19.7309 75.5387 19.7309C75.3715 19.7309 75.2236 20.1979 75.2236 20.1979C74.6512 21.8194 74.1559 22.9285 74.1559 22.9285ZM41.0259 11.9933H50.5899V24.764C50.5899 24.764 50.5899 26.2233 51.9149 26.2233C51.9149 26.2233 53.5485 26.0157 54.5133 24.4332C54.5133 24.4332 55.9669 22.5718 55.9669 21.0411V5.58531C55.9669 5.58531 56.1534 0.000996871 63.6014 0.000996871C63.6014 0.000996871 70.985 -0.245465 70.985 7.0122C70.985 7.0122 71.3902 10.4173 68.6632 15.2752C68.6632 15.2752 67.4476 17.5322 66.084 19.6012C66.084 19.6012 65.0743 21.1838 64.1159 22.5653C64.1159 22.5653 63.357 23.4149 63.357 24.5045C63.357 24.5045 63.2734 26.3335 65.2029 26.3335C65.2029 26.3335 66.888 26.3011 68.213 24.8418C68.213 24.8418 70.1939 22.9674 71.2359 19.9709C71.2359 19.9709 72.8889 16.3648 72.9725 11.9868H80.0024C80.0024 11.9868 80.041 12.6743 80.2404 13.4008C80.2404 13.4008 80.4848 14.4969 81.8805 16.4361C81.8805 16.4361 83.855 19.2769 84.4532 20.3341C84.4532 20.3341 85.9325 22.5588 85.9325 25.3607C85.9325 25.3607 85.9067 28.1561 83.9708 30.0953C83.9708 30.0953 81.8097 32.8259 78.626 32.8259C78.626 32.8259 76.4263 32.8259 74.4646 31.7168C74.4646 31.7168 72.0592 30.4261 70.9979 28.9733C70.9979 28.9733 70.895 28.8047 70.612 28.8047C70.612 28.8047 70.3805 28.8241 70.2132 28.9863C70.2132 28.9863 68.7918 30.5104 67.2739 31.3666C67.2739 31.3666 65.2543 32.8324 62.3215 32.8324C62.3215 32.8324 59.6716 32.8324 58.0572 31.2758C58.0572 31.2758 56.6551 30.1018 56.3785 28.7268C56.3785 28.7268 56.2949 28.4998 56.0826 28.4998C56.0826 28.4998 55.864 28.5387 55.7418 28.7074C55.7418 28.7074 54.4876 30.1797 52.9246 31.2693C52.9246 31.2693 51.2395 32.8259 48.2552 32.8259C48.2552 32.8259 45.5667 32.8648 44.1646 31.399C44.1646 31.399 42.5888 30.011 42.5888 27.9031V16.6891C42.5888 16.6891 42.6788 15.6384 41.0323 15.6384V11.9868L41.0259 11.9933Z" fill="white"></path>
<path d="M97.4743 27.391C97.4743 27.391 98.7928 27.4494 99.2687 26.4246C99.2687 26.4246 99.8412 25.322 99.9505 22.2413V22.2153C99.8347 19.1345 99.2687 18.0449 99.2687 18.0449C98.7864 17.0072 97.4743 17.072 97.4743 17.072H97.4164C97.4164 17.072 96.0915 17.0072 95.6091 18.0449C95.6091 18.0449 95.0559 19.1345 94.9337 22.2153V22.2413C95.0559 25.322 95.6091 26.4246 95.6091 26.4246C96.0915 27.4494 97.4164 27.391 97.4164 27.391H97.4743ZM86.939 22.2088C86.939 22.2088 87.1063 17.1888 90.0713 14.6009C90.0713 14.6009 92.9656 11.6758 97.5901 11.6758C97.5901 11.6758 102.202 11.7147 104.691 14.3026C104.691 14.3026 105.456 15.0355 105.861 15.6452C105.861 15.6452 106.144 15.9694 106.395 15.6776C106.395 15.6776 107.868 13.9459 108.839 13.2908C108.839 13.2908 110.814 11.6369 113.02 11.6369C113.02 11.6369 114.821 11.5915 115.831 12.5644C115.831 12.5644 117.033 13.5827 117.638 14.8344C117.638 14.8344 117.959 15.3598 118.435 14.8733C118.435 14.8733 119.445 13.7837 120.616 12.9665C120.616 12.9665 122.481 11.5137 125.15 11.5137C125.15 11.5137 127.517 11.5915 128.643 12.72C128.643 12.72 130.611 14.3026 130.611 16.4948V27.7542C130.611 27.7542 130.611 29.1292 131.807 29.1811H133.023V32.6575H126.546C126.546 32.6575 122.661 32.6186 122.661 28.3185V20.2566C122.661 20.2566 122.661 18.5508 120.558 18.5508C120.558 18.5508 118.23 18.5962 118.23 20.5355V32.6575H110.28V20.2242C110.28 20.2242 110.222 19.0437 109.315 19.0437C109.315 19.0437 108.466 19.1735 107.984 19.7831C107.984 19.7831 107.572 20.1334 107.791 20.7106C107.791 20.7106 107.939 21.5603 107.939 22.5331C107.939 22.5331 107.984 27.1121 105.083 29.7843C105.083 29.7843 102.279 32.8327 97.6222 32.8327C97.6222 32.8327 92.9913 32.8327 90.3479 30.141C90.3479 30.141 86.9326 27.3651 86.9326 22.2088" fill="white"></path>
<path d="M45.649 3.68457C45.649 3.68457 50.3547 3.68457 50.3547 7.47242C50.3547 7.47242 50.3733 11.2603 45.649 11.2603C45.649 11.2603 40.9248 11.2603 40.9248 7.47242C40.9248 7.47242 40.8876 3.68457 45.649 3.68457Z" fill="white"></path>
</g>
<defs>
<clipPath id="clip0_6_1847">
<rect width="133.022" height="32.8324" fill="white"></rect>
</clipPath>
</defs>
</svg>
