<svg width="40" height="40" viewBox="0 0 40 40" fill="none" xmlns="http://www.w3.org/2000/svg">
<g opacity="0.3">
<rect x="12" y="7" width="21" height="28" fill="#68A1B8"/>
<rect x="8" y="29" width="4" height="5" fill="#68A1B8"/>
</g>
<path d="M10 36.6668C8.61111 36.6668 7.43056 36.1807 6.45833 35.2085C5.48611 34.2363 5 33.0557 5 31.6668V26.6668H10V3.3335L12.5 5.8335L15 3.3335L17.5 5.8335L20 3.3335L22.5 5.8335L25 3.3335L27.5 5.8335L30 3.3335L32.5 5.8335L35 3.3335V31.6668C35 33.0557 34.5139 34.2363 33.5417 35.2085C32.5694 36.1807 31.3889 36.6668 30 36.6668H10ZM30 33.3335C30.4722 33.3335 30.8681 33.1738 31.1875 32.8543C31.5069 32.5349 31.6667 32.139 31.6667 31.6668V8.3335H13.3333V26.6668H28.3333V31.6668C28.3333 32.139 28.4931 32.5349 28.8125 32.8543C29.1319 33.1738 29.5278 33.3335 30 33.3335ZM15 15.0002V11.6668H25V15.0002H15ZM15 20.0002V16.6668H25V20.0002H15ZM28.3333 15.0002C27.8611 15.0002 27.4653 14.8404 27.1458 14.521C26.8264 14.2016 26.6667 13.8057 26.6667 13.3335C26.6667 12.8613 26.8264 12.4654 27.1458 12.146C27.4653 11.8266 27.8611 11.6668 28.3333 11.6668C28.8056 11.6668 29.2014 11.8266 29.5208 12.146C29.8403 12.4654 30 12.8613 30 13.3335C30 13.8057 29.8403 14.2016 29.5208 14.521C29.2014 14.8404 28.8056 15.0002 28.3333 15.0002ZM28.3333 20.0002C27.8611 20.0002 27.4653 19.8404 27.1458 19.521C26.8264 19.2016 26.6667 18.8057 26.6667 18.3335C26.6667 17.8613 26.8264 17.4654 27.1458 17.146C27.4653 16.8266 27.8611 16.6668 28.3333 16.6668C28.8056 16.6668 29.2014 16.8266 29.5208 17.146C29.8403 17.4654 30 17.8613 30 18.3335C30 18.8057 29.8403 19.2016 29.5208 19.521C29.2014 19.8404 28.8056 20.0002 28.3333 20.0002ZM10 33.3335H25V30.0002H8.33333V31.6668C8.33333 32.139 8.49306 32.5349 8.8125 32.8543C9.13194 33.1738 9.52778 33.3335 10 33.3335Z" fill="#68A1B8"/>
</svg>
