<svg width="41" height="40" viewBox="0 0 41 40" fill="none" xmlns="http://www.w3.org/2000/svg">
<g opacity="0.3">
<circle cx="15.5" cy="13.5" r="4.5" fill="#68A1B8"/>
<path d="M4 29C4 26.2386 6.23858 24 9 24H23C25.7614 24 28 26.2386 28 29V31H4V29Z" fill="#68A1B8"/>
</g>
<path d="M30.4998 23.3332V18.3332H25.4998V14.9998H30.4998V9.99984H33.8332V14.9998H38.8332V18.3332H33.8332V23.3332H30.4998ZM15.4998 19.9998C13.6665 19.9998 12.0971 19.3471 10.7915 18.0415C9.48595 16.7359 8.83317 15.1665 8.83317 13.3332C8.83317 11.4998 9.48595 9.93039 10.7915 8.62484C12.0971 7.31928 13.6665 6.6665 15.4998 6.6665C17.3332 6.6665 18.9026 7.31928 20.2082 8.62484C21.5137 9.93039 22.1665 11.4998 22.1665 13.3332C22.1665 15.1665 21.5137 16.7359 20.2082 18.0415C18.9026 19.3471 17.3332 19.9998 15.4998 19.9998ZM2.1665 33.3332V28.6665C2.1665 27.7221 2.40956 26.854 2.89567 26.0623C3.38178 25.2707 4.02762 24.6665 4.83317 24.2498C6.55539 23.3887 8.30539 22.7429 10.0832 22.3123C11.8609 21.8818 13.6665 21.6665 15.4998 21.6665C17.3332 21.6665 19.1387 21.8818 20.9165 22.3123C22.6943 22.7429 24.4443 23.3887 26.1665 24.2498C26.9721 24.6665 27.6179 25.2707 28.104 26.0623C28.5901 26.854 28.8332 27.7221 28.8332 28.6665V33.3332H2.1665ZM5.49984 29.9998H25.4998V28.6665C25.4998 28.3609 25.4234 28.0832 25.2707 27.8332C25.1179 27.5832 24.9165 27.3887 24.6665 27.2498C23.1665 26.4998 21.6526 25.9373 20.1248 25.5623C18.5971 25.1873 17.0554 24.9998 15.4998 24.9998C13.9443 24.9998 12.4026 25.1873 10.8748 25.5623C9.34706 25.9373 7.83317 26.4998 6.33317 27.2498C6.08317 27.3887 5.88178 27.5832 5.729 27.8332C5.57623 28.0832 5.49984 28.3609 5.49984 28.6665V29.9998ZM15.4998 16.6665C16.4165 16.6665 17.2012 16.3401 17.854 15.6873C18.5068 15.0346 18.8332 14.2498 18.8332 13.3332C18.8332 12.4165 18.5068 11.6318 17.854 10.979C17.2012 10.3262 16.4165 9.99984 15.4998 9.99984C14.5832 9.99984 13.7984 10.3262 13.1457 10.979C12.4929 11.6318 12.1665 12.4165 12.1665 13.3332C12.1665 14.2498 12.4929 15.0346 13.1457 15.6873C13.7984 16.3401 14.5832 16.6665 15.4998 16.6665Z" fill="#68A1B8"/>
</svg>
