<svg width="25" height="24" viewBox="0 0 25 24" fill="none" xmlns="http://www.w3.org/2000/svg">
<path d="M11.1 16C11.1 14.65 11.2209 13.6792 11.4625 13.0875C11.7042 12.4958 12.2167 11.85 13 11.15C13.6834 10.55 14.2042 10.0292 14.5625 9.5875C14.9209 9.14583 15.1 8.64167 15.1 8.075C15.1 7.39167 14.8709 6.825 14.4125 6.375C13.9542 5.925 13.3167 5.7 12.5 5.7C11.65 5.7 11.0042 5.95833 10.5625 6.475C10.1209 6.99167 9.80838 7.51667 9.62505 8.05L7.05005 6.95C7.40005 5.88333 8.04172 4.95833 8.97505 4.175C9.90838 3.39167 11.0834 3 12.5 3C14.25 3 15.5959 3.4875 16.5375 4.4625C17.4792 5.4375 17.95 6.60833 17.95 7.975C17.95 8.80833 17.7709 9.52083 17.4125 10.1125C17.0542 10.7042 16.4917 11.375 15.725 12.125C14.9084 12.9083 14.4125 13.5042 14.2375 13.9125C14.0625 14.3208 13.975 15.0167 13.975 16H11.1ZM12.5 22C11.95 22 11.4792 21.8042 11.0875 21.4125C10.6959 21.0208 10.5 20.55 10.5 20C10.5 19.45 10.6959 18.9792 11.0875 18.5875C11.4792 18.1958 11.95 18 12.5 18C13.05 18 13.5209 18.1958 13.9125 18.5875C14.3042 18.9792 14.5 19.45 14.5 20C14.5 20.55 14.3042 21.0208 13.9125 21.4125C13.5209 21.8042 13.05 22 12.5 22Z" fill="white"/>
</svg>
