<svg width="40" height="40" viewBox="0 0 40 40" fill="none" xmlns="http://www.w3.org/2000/svg">
<g clip-path="url(#clip0_37_3408)">
<g opacity="0.3">
<path d="M31.6685 15.8336L25.8351 10.0002C25.8351 8.91689 25.9851 7.85023 26.2685 6.81689C24.6518 7.23356 23.3351 8.43356 22.7851 10.0002H12.5018C9.28512 10.0002 6.66846 12.6169 6.66846 15.8336C6.66846 18.9669 8.70179 26.9169 10.0185 31.6669H13.3351V28.3336H23.3351V31.6669H26.6851L29.2685 23.0836L33.3351 21.7169V15.8336H31.6685ZM21.6685 15.0002H13.3351V11.6669H21.6685V15.0002ZM26.6685 18.3336C25.7518 18.3336 25.0018 17.5836 25.0018 16.6669C25.0018 15.7502 25.7518 15.0002 26.6685 15.0002C27.5851 15.0002 28.3351 15.7502 28.3351 16.6669C28.3351 17.5836 27.5851 18.3336 26.6685 18.3336Z" fill="#E31837"/>
</g>
<path d="M25.0016 16.6668C25.0016 15.7502 25.7516 15.0002 26.6683 15.0002C27.585 15.0002 28.335 15.7502 28.335 16.6668C28.335 17.5835 27.585 18.3335 26.6683 18.3335C25.7516 18.3335 25.0016 17.5835 25.0016 16.6668ZM13.335 15.0002H21.6683V11.6668H13.335V15.0002ZM36.6683 12.5002V24.1168L31.9683 25.6835L29.1683 35.0002H20.0016V31.6668H16.6683V35.0002H7.50163C7.50163 35.0002 3.33496 20.9002 3.33496 15.8335C3.33496 10.7668 7.43496 6.66683 12.5016 6.66683H20.835C22.3516 4.65016 24.7683 3.3335 27.5016 3.3335C28.885 3.3335 30.0016 4.45016 30.0016 5.8335C30.0016 6.1835 29.935 6.50016 29.8016 6.80016C29.5683 7.36683 29.3683 8.01683 29.2683 8.71683L33.0516 12.5002H36.6683ZM33.335 15.8335H31.6683L25.835 10.0002C25.835 8.91683 25.985 7.85016 26.2683 6.81683C24.6516 7.2335 23.335 8.4335 22.785 10.0002H12.5016C9.28496 10.0002 6.66829 12.6168 6.66829 15.8335C6.66829 18.9668 8.70163 26.9168 10.0183 31.6668H13.335V28.3335H23.335V31.6668H26.685L29.2683 23.0835L33.335 21.7168V15.8335Z" fill="#E31837"/>
</g>
<defs>
<clipPath id="clip0_37_3408">
<rect width="40" height="40" fill="white" transform="translate(0.00170898)"/>
</clipPath>
</defs>
</svg>
