<svg width="41" height="40" viewBox="0 0 41 40" fill="none" xmlns="http://www.w3.org/2000/svg">
<g clip-path="url(#clip0_37_3315)">
<path opacity="0.3" d="M28.7564 10H5.4231V23.3333H28.7564V10ZM17.0898 21.6667C14.3231 21.6667 12.0898 19.4333 12.0898 16.6667C12.0898 13.9 14.3231 11.6667 17.0898 11.6667C19.8564 11.6667 22.0898 13.9 22.0898 16.6667C22.0898 19.4333 19.8564 21.6667 17.0898 21.6667Z" fill="#E31837"/>
<path d="M28.7564 6.6665H5.42305C3.58972 6.6665 2.08972 8.1665 2.08972 9.99984V23.3332C2.08972 25.1665 3.58972 26.6665 5.42305 26.6665H28.7564C30.5897 26.6665 32.0897 25.1665 32.0897 23.3332V9.99984C32.0897 8.1665 30.5897 6.6665 28.7564 6.6665ZM5.42305 23.3332V9.99984H28.7564V23.3332H5.42305Z" fill="#E31837"/>
<path d="M17.0897 11.6665C14.3231 11.6665 12.0897 13.8998 12.0897 16.6665C12.0897 19.4332 14.3231 21.6665 17.0897 21.6665C19.8564 21.6665 22.0897 19.4332 22.0897 16.6665C22.0897 13.8998 19.8564 11.6665 17.0897 11.6665Z" fill="#E31837"/>
<path d="M38.7564 11.6665V29.9998C38.7564 31.8332 37.2564 33.3332 35.4231 33.3332H7.08972V29.9998H35.4231V11.6665H38.7564Z" fill="#E31837"/>
</g>
<defs>
<clipPath id="clip0_37_3315">
<rect width="40" height="40" fill="white" transform="translate(0.423096)"/>
</clipPath>
</defs>
</svg>
