<svg width="41" height="40" viewBox="0 0 41 40" fill="none" xmlns="http://www.w3.org/2000/svg">
<g clip-path="url(#clip0_37_3398)">
<g opacity="0.3">
<path d="M32.1666 16.3168L19.1833 3.3335H8.83325V13.6835L21.8166 26.6668L32.1666 16.3168ZM12.5833 9.16683C11.4333 9.16683 10.4999 8.2335 10.4999 7.0835C10.4999 5.9335 11.4333 5.00016 12.5833 5.00016C13.7333 5.00016 14.6666 5.9335 14.6666 7.0835C14.6666 8.2335 13.7333 9.16683 12.5833 9.16683Z" fill="#E31837"/>
</g>
<path d="M21.8167 34.9998L5.5 18.6831V22.0164C5.5 22.8998 5.85 23.7498 6.48333 24.3664L19.4667 37.3498C20.7667 38.6498 22.8833 38.6498 24.1833 37.3498L34.5333 26.9998C35.8333 25.6998 35.8333 23.5831 34.5333 22.2831L21.8167 34.9998Z" fill="#E31837"/>
<path d="M19.4667 29.0167C20.1167 29.6667 20.9667 30 21.8167 30C22.6667 30 23.5167 29.6667 24.1667 29.0167L34.5167 18.6667C35.8167 17.3667 35.8167 15.25 34.5167 13.95L21.5333 0.966667C20.9167 0.35 20.0667 0 19.1833 0H8.83333C7 0 5.5 1.5 5.5 3.33333V13.6833C5.5 14.5667 5.85 15.4167 6.48333 16.0333L19.4667 29.0167ZM8.83333 3.33333H19.1833L32.1667 16.3167L21.8167 26.6667L8.83333 13.6833V3.33333Z" fill="#E31837"/>
<path d="M12.5833 9.16667C13.7339 9.16667 14.6667 8.23393 14.6667 7.08333C14.6667 5.93274 13.7339 5 12.5833 5C11.4327 5 10.5 5.93274 10.5 7.08333C10.5 8.23393 11.4327 9.16667 12.5833 9.16667Z" fill="#E31837"/>
</g>
<defs>
<clipPath id="clip0_37_3398">
<rect width="40" height="40" fill="white" transform="translate(0.5)"/>
</clipPath>
</defs>
</svg>
