<svg width="24" height="24" viewBox="0 0 24 24" fill="none" xmlns="http://www.w3.org/2000/svg">
<path d="M10.5998 16C10.5998 14.65 10.7206 13.6792 10.9623 13.0875C11.204 12.4958 11.7165 11.85 12.4998 11.15C13.1831 10.55 13.704 10.0292 14.0623 9.5875C14.4206 9.14583 14.5998 8.64167 14.5998 8.075C14.5998 7.39167 14.3706 6.825 13.9123 6.375C13.454 5.925 12.8165 5.7 11.9998 5.7C11.1498 5.7 10.504 5.95833 10.0623 6.475C9.62064 6.99167 9.30814 7.51667 9.1248 8.05L6.5498 6.95C6.8998 5.88333 7.54147 4.95833 8.4748 4.175C9.40814 3.39167 10.5831 3 11.9998 3C13.7498 3 15.0956 3.4875 16.0373 4.4625C16.979 5.4375 17.4498 6.60833 17.4498 7.975C17.4498 8.80833 17.2706 9.52083 16.9123 10.1125C16.554 10.7042 15.9915 11.375 15.2248 12.125C14.4081 12.9083 13.9123 13.5042 13.7373 13.9125C13.5623 14.3208 13.4748 15.0167 13.4748 16H10.5998ZM11.9998 22C11.4498 22 10.979 21.8042 10.5873 21.4125C10.1956 21.0208 9.9998 20.55 9.9998 20C9.9998 19.45 10.1956 18.9792 10.5873 18.5875C10.979 18.1958 11.4498 18 11.9998 18C12.5498 18 13.0206 18.1958 13.4123 18.5875C13.804 18.9792 13.9998 19.45 13.9998 20C13.9998 20.55 13.804 21.0208 13.4123 21.4125C13.0206 21.8042 12.5498 22 11.9998 22Z" fill="#5F6368"/>
</svg>
