<svg width="41" height="40" viewBox="0 0 41 40" fill="none" xmlns="http://www.w3.org/2000/svg">
<g clip-path="url(#clip0_37_3313)">
<path opacity="0.3" d="M7.16663 20H33.8333V30H7.16663V20ZM7.16663 10H33.8333V13.3333H7.16663V10Z" fill="#E31837"/>
<path d="M33.8334 6.6665H7.16671C5.31671 6.6665 3.85004 8.14984 3.85004 9.99984L3.83337 29.9998C3.83337 31.8498 5.31671 33.3332 7.16671 33.3332H33.8334C35.6834 33.3332 37.1667 31.8498 37.1667 29.9998V9.99984C37.1667 8.14984 35.6834 6.6665 33.8334 6.6665ZM33.8334 29.9998H7.16671V19.9998H33.8334V29.9998ZM33.8334 13.3332H7.16671V9.99984H33.8334V13.3332Z" fill="#E31837"/>
</g>
<defs>
<clipPath id="clip0_37_3313">
<rect width="40" height="40" fill="white" transform="translate(0.5)"/>
</clipPath>
</defs>
</svg>
