<svg width="40" height="40" viewBox="0 0 40 40" fill="none" xmlns="http://www.w3.org/2000/svg">
<g clip-path="url(#clip0_5_1142)">
<path fill-rule="evenodd" clip-rule="evenodd" d="M22.76 21.27L28.49 27L27 28.49L21.27 22.76C20.2 23.53 18.91 24 17.5 24C13.91 24 11 21.09 11 17.5C11 13.91 13.91 11 17.5 11C21.09 11 24 13.91 24 17.5C24 18.91 23.53 20.2 22.76 21.27ZM17.5 13C15.01 13 13 15.01 13 17.5C13 19.99 15.01 22 17.5 22C19.99 22 22 19.99 22 17.5C22 15.01 19.99 13 17.5 13Z" fill="#63696E"/>
</g>
<defs>
<clipPath id="clip0_5_1142">
<rect width="40" height="40" rx="20" fill="white"/>
</clipPath>
</defs>
</svg>
