<svg width="125" height="37" viewBox="0 0 125 37" fill="none" xmlns="http://www.w3.org/2000/svg">
<path d="M89.6947 12.5363C89.6947 11.3284 90.6256 10.3889 91.8223 10.3889C93.0191 10.3889 93.9499 11.3284 93.9499 12.5363C93.9499 13.7441 93.0191 14.6836 91.8223 14.6836C90.6921 14.6836 89.6947 13.7441 89.6947 12.5363ZM37.7682 14.952C37.7682 13.7441 38.6991 12.8047 39.8958 12.8047C41.0926 12.8047 42.0234 13.7441 42.0234 14.952C42.0234 16.1599 41.0926 17.0994 39.8958 17.0994C38.7656 17.1665 37.7682 16.1599 37.7682 14.952ZM32.1833 9.78499V10.5231L28.1941 16.4283L21.1464 26.4269C18.1545 30.386 15.0296 35.8215 9.51118 36.157C6.18682 36.6267 2.92895 35.2846 1.20028 32.8689C0.668383 31.8623 -0.262438 30.7215 0.0699979 29.3795C0.535408 28.8426 1.33325 28.5742 2.06461 28.5071C3.66031 28.7084 3.66031 30.7215 4.79059 31.3926C6.18682 32.7347 8.64685 33.0702 10.442 32.2649C12.3036 31.4597 13.5669 30.0505 14.8302 28.5742L26.133 12.6034C27.3298 11.3284 27.7952 8.97974 29.9892 8.84553C30.7871 8.97974 31.7844 8.97974 32.1833 9.78499ZM55.9857 0.457492C56.3182 1.12854 56.6506 1.86668 56.3847 2.67193C54.5895 6.09425 50.4673 6.22846 46.9435 6.42978L42.3559 6.36267L25.0692 5.69163C21.2794 5.42321 17.6226 5.96005 14.6972 7.77186C13.8993 8.44291 13.035 9.18105 13.035 10.2547C13.3674 11.06 14.2983 11.1271 15.0961 11.1271C17.0242 11.1942 18.6199 10.5231 20.2821 9.98631C20.814 9.8521 21.4124 9.9192 21.8113 10.1876C22.2767 10.5231 22.3432 11.06 22.4097 11.5968C22.4762 12.1336 22.2767 12.4692 21.9443 12.8718C19.6837 14.6165 16.6918 14.7507 13.7664 14.6165C11.5723 14.5494 9.84362 13.2744 9.11226 11.3284C8.51387 8.4429 10.575 6.42978 12.4366 4.88638C19.8832 0.390388 30.0557 2.53773 38.832 2.67193C42.8878 2.73904 47.1429 2.87325 51.0657 2.2022C52.5284 1.93379 53.7252 0.994327 54.789 0.0548663C55.1879 -0.146447 55.6533 0.256179 55.9857 0.457492ZM101.064 27.2321C101.596 25.4874 100.865 23.6756 100.067 22.4006L98.0721 26.4269V26.6953C98.604 27.2992 99.4019 28.2387 100.466 27.9703C100.599 27.7018 100.931 27.5005 101.064 27.2321ZM78.8573 19.448C78.6579 18.4414 77.6606 19.2467 77.3281 19.6493C76.2643 21.0585 75.267 22.9374 76.0649 24.7493C77.6606 23.6085 79.1233 21.7296 78.8573 19.448ZM69.6821 9.44947C69.5491 9.24816 69.4162 8.97974 69.0837 8.97974C67.754 9.24816 66.8896 10.1876 66.0918 11.1942C63.9642 14.0797 62.2355 17.3678 62.2355 21.2598C64.5626 19.2467 66.4242 16.6967 68.0199 14.3481C68.8178 12.8718 69.9481 11.3955 69.6821 9.44947ZM72.2751 6.49688C74.4692 9.65078 72.6075 13.5428 71.0783 16.4283C68.8178 20.052 66.2248 22.8032 62.9669 25.4203C63.1664 26.2927 63.7647 26.8966 64.4961 27.3663C65.9588 28.2387 68.2194 28.5742 69.9481 27.8361C70.8124 27.5005 71.4773 26.8966 72.2751 26.2927C71.8762 24.0111 72.2086 21.4611 73.1394 19.5151C74.3362 17.4349 76.3308 15.4218 79.0568 15.4889C80.3865 15.4889 81.5833 16.3612 82.1152 17.502C83.046 19.8506 82.3812 22.5348 80.7855 24.4137C79.8546 25.5545 78.9238 26.3598 77.86 27.2321C78.5914 27.9703 79.9211 28.1716 81.0514 27.9032C82.3147 27.4334 83.6444 26.7624 84.4423 25.6887C85.639 23.0045 86.6363 19.9848 87.7001 17.1665C88.0991 16.4954 88.8304 16.0928 89.6283 16.0928C90.3596 16.0257 91.091 16.227 91.4234 16.7638C91.6229 17.3007 91.4234 17.8375 91.224 18.3072C90.2931 20.723 89.2958 23.0716 88.631 25.5545C88.5645 26.2927 88.7639 27.165 89.4288 27.5005C90.825 27.9703 92.1548 27.0979 93.0191 26.1584C95.6121 23.273 97.6732 19.6493 98.6705 15.6231C98.87 15.2204 99.0695 14.8849 99.4684 14.6836C100 14.5494 100.732 14.5494 101.197 14.8178C101.995 15.4889 101.928 16.6967 102.46 17.5691C103.857 20.3875 105.253 23.273 104.987 26.6953C107.713 26.0913 108.976 23.3401 110.372 21.1927C110.638 20.7901 110.838 20.3204 110.971 19.9177C110.173 19.7164 108.91 20.1862 108.511 19.1796C108.245 18.5086 108.311 17.6362 108.71 17.0323C109.508 15.7573 111.436 16.4283 112.899 16.227C113.63 15.0191 114.096 13.7441 114.694 12.5363C114.96 12.2007 115.425 12.0665 115.891 12.1336C116.888 12.4692 117.752 13.2744 117.885 14.4152C117.752 15.0191 117.486 15.6231 117.22 16.1599L117.353 16.2941L123.803 16.3612C124.202 16.4283 124.601 16.4954 124.8 16.8981C125.132 17.4349 124.999 18.1059 124.866 18.6428C124.667 19.1796 124.202 19.6493 123.67 19.7835C120.811 19.9177 118.151 19.9848 115.226 19.9848C114.162 21.6625 113.165 23.3401 112.433 25.1519C112.234 25.7558 112.167 26.6282 112.5 27.2321C112.965 27.9703 113.963 28.2387 114.893 28.1045C116.29 28.0374 117.42 27.2992 118.417 26.4269C118.75 26.2255 119.149 26.2927 119.548 26.4269C119.88 26.6282 120.279 26.9637 120.345 27.4334C120.678 28.5071 120.146 29.4466 119.348 30.1176C117.486 31.7281 114.827 32.2649 112.433 31.5939C110.971 31.1913 109.774 30.3189 108.843 29.0439C107.181 30.1847 105.253 30.8557 103.059 30.7215C101.995 31.9294 100.067 31.9965 98.604 31.4597C97.2743 31.0571 96.41 29.9834 95.4127 29.0439C93.4845 30.5202 90.958 32.2649 88.365 31.0571C87.5007 30.6544 86.7693 30.0505 86.0379 29.3795C83.9104 31.2584 80.586 32.2649 77.5941 31.1913C76.3308 30.7886 75.2005 30.1176 74.2697 29.2452C72.674 30.0505 71.2778 30.99 69.5491 31.4597C66.1583 32.3991 62.568 31.2584 60.6398 28.6413C60.3739 28.2387 60.1079 27.9032 59.9085 27.5676C58.1133 28.6413 56.3182 30.0505 54.2571 30.8557C51.5311 32.0636 47.3424 32.8018 44.9489 30.5202C44.417 30.0505 43.9516 29.5137 43.6191 28.9768C43.0207 29.2452 42.6218 29.7821 42.0234 30.1847C39.6964 31.9294 35.9731 32.4663 33.1806 31.1913C32.3828 30.7215 31.7844 29.6479 31.5184 28.8426C29.5238 29.9163 27.7952 31.3926 25.5346 31.9294C24.2713 32.1307 23.54 30.9229 22.8751 30.1847C22.7421 29.9163 22.8086 29.5808 22.9416 29.3123C23.407 28.6413 24.3378 28.7755 24.9362 28.3729C27.7287 27.165 30.3882 25.6887 32.1833 23.0045C33.2471 21.5954 34.1779 19.9177 35.2417 18.4414C35.7736 17.8375 36.5715 17.7033 37.3028 17.9046C37.8347 18.0388 38.4996 18.3743 38.5661 18.9783V19.3138C37.7682 21.6625 35.7736 23.4743 34.9758 25.8229C34.8428 26.3598 34.8428 27.0308 35.1088 27.5005C35.5742 28.1716 36.4385 28.3058 37.1699 28.1045C42.4223 26.9637 43.7521 21.9309 46.4781 18.2401V18.1059C45.6802 17.8375 44.2175 18.4414 44.151 17.3007C44.0845 16.227 44.5499 15.4889 45.3478 14.952C46.2786 14.6165 47.5419 14.7507 48.6057 14.6836C49.603 13.7441 49.603 11.2613 51.797 11.731C52.4619 11.731 53.2598 11.9994 53.5257 12.7376C53.5922 13.4757 52.9938 14.0126 52.7944 14.6165C53.9246 14.7507 55.1879 14.6165 56.3182 14.6836C56.5841 14.8178 56.7836 15.0191 56.8501 15.2875C56.9166 16.3612 56.3182 17.3678 55.4538 17.7704C54.0576 18.173 52.3289 17.9046 50.8662 18.0388L46.9435 24.615C46.611 25.3532 46.3451 26.3598 46.8105 27.0979C47.7413 28.3729 49.47 28.5071 50.8662 28.2387C53.7917 27.2992 56.1852 25.5545 58.5122 23.8098C57.7809 16.9652 60.7063 11.06 65.0945 6.7653C66.4907 5.49032 68.3524 4.68506 70.4135 5.08769C71.1448 5.42321 71.8097 5.82584 72.2751 6.49688ZM122.805 14.4152H123.071V13.8113H123.271C123.404 13.8113 123.537 13.8113 123.603 13.8784C123.67 13.9455 123.736 14.0797 123.736 14.2139V14.3481V14.4152H124.002V14.3481C124.002 14.281 124.002 14.281 124.002 14.2139V14.0797C124.002 14.0126 124.002 13.9455 123.936 13.8113C123.869 13.7441 123.803 13.677 123.67 13.677C123.736 13.677 123.869 13.6099 123.869 13.6099C124.002 13.5428 124.002 13.4086 124.002 13.2744C124.002 13.0731 123.936 12.9389 123.736 12.8718C123.67 12.8047 123.537 12.8047 123.337 12.8047H122.805V14.4152ZM123.537 13.6099C123.47 13.6099 123.404 13.677 123.271 13.677H123.005V13.0731H123.271C123.404 13.0731 123.537 13.0731 123.603 13.1402C123.67 13.2073 123.736 13.2744 123.736 13.3415C123.736 13.4757 123.67 13.5428 123.537 13.6099ZM124.335 12.6034C124.069 12.335 123.736 12.2007 123.337 12.2007C122.938 12.2007 122.606 12.335 122.34 12.6034C122.074 12.8718 121.941 13.2073 121.941 13.6099C121.941 14.0126 122.074 14.3481 122.34 14.6165C122.606 14.8849 122.938 15.0191 123.337 15.0191C123.736 15.0191 124.069 14.8849 124.335 14.6165C124.601 14.3481 124.734 14.0126 124.734 13.6099C124.8 13.2744 124.667 12.9389 124.335 12.6034ZM124.202 12.8047C124.468 13.0731 124.534 13.3415 124.534 13.677C124.534 14.0126 124.401 14.3481 124.202 14.5494C123.936 14.8178 123.67 14.8849 123.337 14.8849C123.005 14.8849 122.739 14.7507 122.473 14.5494C122.207 14.281 122.141 14.0126 122.141 13.677C122.141 13.3415 122.273 13.0731 122.473 12.8047C122.739 12.5363 123.005 12.4692 123.337 12.4692C123.67 12.4021 124.002 12.5363 124.202 12.8047Z" fill="white"/>
</svg>
