<svg width="143" height="42" viewBox="0 0 143 42" fill="none" xmlns="http://www.w3.org/2000/svg">
<g clip-path="url(#clip0_15_532)">
<path d="M102.067 14.28C102.067 12.9054 103.127 11.8364 104.488 11.8364C105.85 11.8364 106.91 12.9054 106.91 14.28C106.91 15.6545 105.85 16.7236 104.488 16.7236C103.202 16.7236 102.067 15.6545 102.067 14.28ZM42.9757 17.0291C42.9757 15.6545 44.035 14.5854 45.3969 14.5854C46.7588 14.5854 47.8181 15.6545 47.8181 17.0291C47.8181 18.4036 46.7588 19.4727 45.3969 19.4727C44.1107 19.5491 42.9757 18.4036 42.9757 17.0291ZM36.6202 11.1491V11.9891L32.0805 18.7091L24.0604 30.0873C20.6556 34.5927 17.0996 40.7782 10.8197 41.16C7.0366 41.6945 3.32919 40.1673 1.36199 37.4182C0.756703 36.2727 -0.302557 34.9745 0.0757502 33.4473C0.60538 32.8364 1.51332 32.5309 2.34559 32.4545C4.16146 32.6836 4.16146 34.9745 5.44771 35.7382C7.0366 37.2654 9.83607 37.6473 11.8789 36.7309C13.9974 35.8145 15.435 34.2109 16.8726 32.5309L29.735 14.3564C31.0969 12.9054 31.6265 10.2327 34.1234 10.08C35.0313 10.2327 36.1662 10.2327 36.6202 11.1491ZM63.707 0.534535C64.0853 1.29817 64.4636 2.13817 64.1609 3.05453C62.1181 6.94908 57.4271 7.10181 53.417 7.3309L48.1964 7.25453L28.5244 6.4909C24.2117 6.18544 20.0504 6.79635 16.7213 8.85817C15.8133 9.62181 14.8297 10.4618 14.8297 11.6836C15.208 12.6 16.2673 12.6764 17.1752 12.6764C19.3694 12.7527 21.1853 11.9891 23.0768 11.3782C23.6821 11.2254 24.363 11.3018 24.817 11.6073C25.3466 11.9891 25.4223 12.6 25.498 13.2109C25.5736 13.8218 25.3466 14.2036 24.9683 14.6618C22.3959 16.6473 18.9911 16.8 15.662 16.6473C13.1652 16.5709 11.198 15.12 10.3657 12.9054C9.68474 9.62181 12.0302 7.3309 14.1488 5.57453C22.6228 0.458172 34.199 2.90181 44.1863 3.05453C48.8017 3.1309 53.644 3.28363 58.108 2.51999C59.7726 2.21453 61.1345 1.14544 62.3451 0.076353C62.799 -0.152738 63.3287 0.305444 63.707 0.534535ZM115.005 31.0036C115.611 29.0182 114.778 26.9564 113.87 25.5054L111.601 30.0873V30.3927C112.206 31.08 113.114 32.1491 114.324 31.8436C114.476 31.5382 114.854 31.3091 115.005 31.0036ZM89.7345 22.1454C89.5075 21 88.3726 21.9164 87.9943 22.3745C86.7837 23.9782 85.6488 26.1164 86.5567 28.1782C88.3726 26.88 90.0371 24.7418 89.7345 22.1454ZM79.2932 10.7673C79.1419 10.5382 78.9906 10.2327 78.6123 10.2327C77.099 10.5382 76.1154 11.6073 75.2075 12.7527C72.7863 16.0364 70.8191 19.7782 70.8191 24.2073C73.4673 21.9164 75.5858 19.0145 77.4017 16.3418C78.3096 14.6618 79.5959 12.9818 79.2932 10.7673ZM82.244 7.40726C84.7408 10.9964 82.6223 15.4254 80.8821 18.7091C78.3096 22.8327 75.3588 25.9636 71.6514 28.9418C71.8784 29.9345 72.5593 30.6218 73.3916 31.1564C75.0562 32.1491 77.6287 32.5309 79.5959 31.6909C80.5794 31.3091 81.3361 30.6218 82.244 29.9345C81.79 27.3382 82.1683 24.4364 83.2276 22.2218C84.5895 19.8545 86.8593 17.5636 89.9615 17.64C91.4747 17.64 92.8366 18.6327 93.4419 19.9309C94.5011 22.6036 93.7445 25.6582 91.9287 27.7964C90.8694 29.0945 89.8101 30.0109 88.5996 31.0036C89.4318 31.8436 90.9451 32.0727 92.2313 31.7673C93.6689 31.2327 95.1821 30.4691 96.09 29.2473C97.4519 26.1927 98.5869 22.7564 99.7974 19.5491C100.251 18.7854 101.084 18.3273 101.992 18.3273C102.824 18.2509 103.656 18.48 104.034 19.0909C104.261 19.7018 104.034 20.3127 103.807 20.8473C102.748 23.5964 101.613 26.2691 100.857 29.0945C100.781 29.9345 101.008 30.9273 101.765 31.3091C103.354 31.8436 104.867 30.8509 105.85 29.7818C108.801 26.4982 111.147 22.3745 112.282 17.7927C112.509 17.3345 112.736 16.9527 113.19 16.7236C113.795 16.5709 114.627 16.5709 115.157 16.8764C116.065 17.64 115.989 19.0145 116.594 20.0073C118.183 23.2145 119.772 26.4982 119.469 30.3927C122.572 29.7054 124.009 26.5745 125.598 24.1309C125.901 23.6727 126.128 23.1382 126.279 22.68C125.371 22.4509 123.933 22.9854 123.479 21.84C123.177 21.0764 123.252 20.0836 123.706 19.3964C124.614 17.9454 126.809 18.7091 128.473 18.48C129.305 17.1054 129.835 15.6545 130.516 14.28C130.819 13.8982 131.348 13.7454 131.878 13.8218C133.013 14.2036 133.996 15.12 134.148 16.4182C133.996 17.1054 133.694 17.7927 133.391 18.4036L133.542 18.5564L140.882 18.6327C141.336 18.7091 141.789 18.7854 142.016 19.2436C142.395 19.8545 142.243 20.6182 142.092 21.2291C141.865 21.84 141.336 22.3745 140.73 22.5273C137.477 22.68 134.45 22.7564 131.121 22.7564C129.911 24.6654 128.776 26.5745 127.943 28.6364C127.716 29.3236 127.641 30.3164 128.019 31.0036C128.549 31.8436 129.684 32.1491 130.743 31.9964C132.332 31.92 133.618 31.08 134.753 30.0873C135.131 29.8582 135.585 29.9345 136.039 30.0873C136.418 30.3164 136.872 30.6982 136.947 31.2327C137.325 32.4545 136.72 33.5236 135.812 34.2873C133.694 36.12 130.667 36.7309 127.943 35.9673C126.279 35.5091 124.917 34.5164 123.858 33.0654C121.966 34.3636 119.772 35.1273 117.275 34.9745C116.065 36.3491 113.87 36.4254 112.206 35.8145C110.693 35.3564 109.709 34.1345 108.574 33.0654C106.38 34.7454 103.505 36.7309 100.554 35.3564C99.5705 34.8982 98.7382 34.2109 97.9059 33.4473C95.4847 35.5854 91.7017 36.7309 88.2969 35.5091C86.8593 35.0509 85.5731 34.2873 84.5138 33.2945C82.698 34.2109 81.1091 35.28 79.1419 35.8145C75.2832 36.8836 71.1974 35.5854 69.0033 32.6073C68.7006 32.1491 68.398 31.7673 68.171 31.3854C66.1281 32.6073 64.0853 34.2109 61.7398 35.1273C58.6377 36.5018 53.871 37.3418 51.1472 34.7454C50.5419 34.2109 50.0123 33.6 49.6339 32.9891C48.953 33.2945 48.499 33.9054 47.8181 34.3636C45.1699 36.3491 40.9329 36.96 37.7551 35.5091C36.8472 34.9745 36.1662 33.7527 35.8636 32.8364C33.5937 34.0582 31.6265 35.7382 29.0541 36.3491C27.6165 36.5782 26.7842 35.2036 26.0276 34.3636C25.8763 34.0582 25.9519 33.6764 26.1033 33.3709C26.6329 32.6073 27.6922 32.76 28.3731 32.3018C31.5509 30.9273 34.5773 29.2473 36.6202 26.1927C37.8308 24.5891 38.89 22.68 40.1006 21C40.7059 20.3127 41.6138 20.16 42.4461 20.3891C43.0514 20.5418 43.808 20.9236 43.8837 21.6109V21.9927C42.9757 24.6654 40.7059 26.7273 39.798 29.4C39.6466 30.0109 39.6466 30.7745 39.9493 31.3091C40.4789 32.0727 41.4625 32.2254 42.2948 31.9964C48.272 30.6982 49.7853 24.9709 52.8874 20.7709V20.6182C51.9795 20.3127 50.3149 21 50.2392 19.7018C50.1636 18.48 50.6932 17.64 51.6011 17.0291C52.6604 16.6473 54.098 16.8 55.3086 16.7236C56.4435 15.6545 56.4435 12.8291 58.9403 13.3636C59.6969 13.3636 60.6048 13.6691 60.9075 14.5091C60.9832 15.3491 60.3022 15.96 60.0752 16.6473C61.3615 16.8 62.799 16.6473 64.0853 16.7236C64.3879 16.8764 64.6149 17.1054 64.6906 17.4109C64.7662 18.6327 64.0853 19.7782 63.1017 20.2364C61.5128 20.6945 59.5456 20.3891 57.881 20.5418L53.417 28.0254C53.0387 28.8654 52.7361 30.0109 53.2657 30.8509C54.325 32.3018 56.2922 32.4545 57.881 32.1491C61.2101 31.08 63.9339 29.0945 66.5821 27.1091C65.7498 19.32 69.0789 12.6 74.0726 7.71272C75.6615 6.26181 77.78 5.34544 80.1255 5.80363C80.9578 6.18544 81.7144 6.64363 82.244 7.40726ZM139.747 16.4182H140.049V15.7309H140.276C140.428 15.7309 140.579 15.7309 140.655 15.8073C140.73 15.8836 140.806 16.0364 140.806 16.1891V16.3418V16.4182H141.109V16.3418C141.109 16.2654 141.109 16.2654 141.109 16.1891V16.0364C141.109 15.96 141.109 15.8836 141.033 15.7309C140.957 15.6545 140.882 15.5782 140.73 15.5782C140.806 15.5782 140.957 15.5018 140.957 15.5018C141.109 15.4254 141.109 15.2727 141.109 15.12C141.109 14.8909 141.033 14.7382 140.806 14.6618C140.73 14.5854 140.579 14.5854 140.352 14.5854H139.747V16.4182ZM140.579 15.5018C140.503 15.5018 140.428 15.5782 140.276 15.5782H139.974V14.8909H140.276C140.428 14.8909 140.579 14.8909 140.655 14.9673C140.73 15.0436 140.806 15.12 140.806 15.1964C140.806 15.3491 140.73 15.4254 140.579 15.5018ZM141.487 14.3564C141.184 14.0509 140.806 13.8982 140.352 13.8982C139.898 13.8982 139.52 14.0509 139.217 14.3564C138.914 14.6618 138.763 15.0436 138.763 15.5018C138.763 15.96 138.914 16.3418 139.217 16.6473C139.52 16.9527 139.898 17.1054 140.352 17.1054C140.806 17.1054 141.184 16.9527 141.487 16.6473C141.79 16.3418 141.941 15.96 141.941 15.5018C142.016 15.12 141.865 14.7382 141.487 14.3564ZM141.336 14.5854C141.638 14.8909 141.714 15.1964 141.714 15.5782C141.714 15.96 141.563 16.3418 141.336 16.5709C141.033 16.8764 140.73 16.9527 140.352 16.9527C139.974 16.9527 139.671 16.8 139.368 16.5709C139.066 16.2654 138.99 15.96 138.99 15.5782C138.99 15.1964 139.141 14.8909 139.368 14.5854C139.671 14.28 139.974 14.2036 140.352 14.2036C140.73 14.1273 141.109 14.28 141.336 14.5854Z" fill="black"/>
</g>
<defs>
<clipPath id="clip0_15_532">
<rect width="143" height="42" fill="white"/>
</clipPath>
</defs>
</svg>
