<svg width="41" height="40" viewBox="0 0 41 40" fill="none" xmlns="http://www.w3.org/2000/svg">
<g opacity="0.3">
<circle cx="15.5" cy="13.5" r="4.5" fill="#E31837"/>
<path d="M4 29C4 26.2386 6.23858 24 9 24H23C25.7614 24 28 26.2386 28 29V31H4V29Z" fill="#E31837"/>
</g>
<path d="M30.5 23.3332V18.3332H25.5V14.9998H30.5V9.99984H33.8333V14.9998H38.8333V18.3332H33.8333V23.3332H30.5ZM15.5 19.9998C13.6666 19.9998 12.0972 19.3471 10.7916 18.0415C9.48607 16.7359 8.83329 15.1665 8.83329 13.3332C8.83329 11.4998 9.48607 9.93039 10.7916 8.62484C12.0972 7.31928 13.6666 6.6665 15.5 6.6665C17.3333 6.6665 18.9027 7.31928 20.2083 8.62484C21.5138 9.93039 22.1666 11.4998 22.1666 13.3332C22.1666 15.1665 21.5138 16.7359 20.2083 18.0415C18.9027 19.3471 17.3333 19.9998 15.5 19.9998ZM2.16663 33.3332V28.6665C2.16663 27.7221 2.40968 26.854 2.89579 26.0623C3.3819 25.2707 4.02774 24.6665 4.83329 24.2498C6.55551 23.3887 8.30551 22.7429 10.0833 22.3123C11.8611 21.8818 13.6666 21.6665 15.5 21.6665C17.3333 21.6665 19.1388 21.8818 20.9166 22.3123C22.6944 22.7429 24.4444 23.3887 26.1666 24.2498C26.9722 24.6665 27.618 25.2707 28.1041 26.0623C28.5902 26.854 28.8333 27.7221 28.8333 28.6665V33.3332H2.16663ZM5.49996 29.9998H25.5V28.6665C25.5 28.3609 25.4236 28.0832 25.2708 27.8332C25.118 27.5832 24.9166 27.3887 24.6666 27.2498C23.1666 26.4998 21.6527 25.9373 20.125 25.5623C18.5972 25.1873 17.0555 24.9998 15.5 24.9998C13.9444 24.9998 12.4027 25.1873 10.875 25.5623C9.34718 25.9373 7.83329 26.4998 6.33329 27.2498C6.08329 27.3887 5.8819 27.5832 5.72913 27.8332C5.57635 28.0832 5.49996 28.3609 5.49996 28.6665V29.9998ZM15.5 16.6665C16.4166 16.6665 17.2013 16.3401 17.8541 15.6873C18.5069 15.0346 18.8333 14.2498 18.8333 13.3332C18.8333 12.4165 18.5069 11.6318 17.8541 10.979C17.2013 10.3262 16.4166 9.99984 15.5 9.99984C14.5833 9.99984 13.7986 10.3262 13.1458 10.979C12.493 11.6318 12.1666 12.4165 12.1666 13.3332C12.1666 14.2498 12.493 15.0346 13.1458 15.6873C13.7986 16.3401 14.5833 16.6665 15.5 16.6665Z" fill="#E31837"/>
</svg>
