<svg width="25" height="24" viewBox="0 0 25 24" fill="none" xmlns="http://www.w3.org/2000/svg">
<path d="M9.74995 22L9.34995 18.8C9.13328 18.7167 8.92912 18.6167 8.73745 18.5C8.54578 18.3833 8.35828 18.2583 8.17495 18.125L5.19995 19.375L2.44995 14.625L5.02495 12.675C5.00828 12.5583 4.99995 12.4458 4.99995 12.3375V11.6625C4.99995 11.5542 5.00828 11.4417 5.02495 11.325L2.44995 9.375L5.19995 4.625L8.17495 5.875C8.35828 5.74167 8.54995 5.61667 8.74995 5.5C8.94995 5.38333 9.14995 5.28333 9.34995 5.2L9.74995 2H15.25L15.65 5.2C15.8666 5.28333 16.0708 5.38333 16.2625 5.5C16.4541 5.61667 16.6416 5.74167 16.825 5.875L19.8 4.625L22.55 9.375L19.975 11.325C19.9916 11.4417 20 11.5542 20 11.6625V12.3375C20 12.4458 19.9833 12.5583 19.95 12.675L22.525 14.625L19.775 19.375L16.825 18.125C16.6416 18.2583 16.45 18.3833 16.25 18.5C16.05 18.6167 15.85 18.7167 15.65 18.8L15.25 22H9.74995ZM12.55 15.5C13.5166 15.5 14.3416 15.1583 15.025 14.475C15.7083 13.7917 16.05 12.9667 16.05 12C16.05 11.0333 15.7083 10.2083 15.025 9.525C14.3416 8.84167 13.5166 8.5 12.55 8.5C11.5666 8.5 10.7375 8.84167 10.0625 9.525C9.38745 10.2083 9.04995 11.0333 9.04995 12C9.04995 12.9667 9.38745 13.7917 10.0625 14.475C10.7375 15.1583 11.5666 15.5 12.55 15.5Z" fill="white"/>
</svg>
